<?xml version="1.0" encoding="utf-8"?>
<!-- Generator: Adobe Illustrator 27.8.1, SVG Export Plug-In . SVG Version: 6.00 Build 0)  -->
<svg version="1.1" id="Слой_1" xmlns="http://www.w3.org/2000/svg" xmlns:xlink="http://www.w3.org/1999/xlink" x="0px" y="0px"
	 viewBox="0 0 1920 360.2" style="enable-background:new 0 0 1920 360.2;" xml:space="preserve">
<style type="text/css">
	.st0{fill:none;stroke:#FFFFFF;}
	.st1{fill:#FFFFFF;stroke:#FFFFFF;}
	.st2{font-family:'GillSansMT-Bold';}
	.st3{font-size:379.6645px;}
</style>
<image style="overflow:visible;enable-background:new    ;" width="683" height="447" xlink:href="89748AF.png"  transform="matrix(0.8351 0 0 0.8351 571.7925 0.2877)">
</image>
<image style="overflow:visible;enable-background:new    ;" width="681" height="448" xlink:href="89748AD.png"  transform="matrix(0.8346 0 0 0.8346 118.4807 -13.6634)">
</image>
<rect x="68.1" y="63.3" class="st0" width="312.4" height="274.6"/>
<text transform="matrix(1 0 0 1 68.0667 322.2108)" class="st1 st2 st3">K</text>
<rect x="531.7" y="49.6" class="st0" width="312.4" height="274.6"/>
<text transform="matrix(1 0 0 1 531.6858 308.5477)" class="st1 st2 st3">k</text>
<rect x="966.9" y="49.4" class="st0" width="312.4" height="274.7"/>
<text transform="matrix(1 0 0 1 966.9241 308.3465)" class="st1 st2 st3">D</text>
<rect x="1246.7" y="13.9" class="st0" width="312.3" height="274.6"/>
<text transform="matrix(1 0 0 1 1246.6545 272.8524)" class="st1 st2 st3">j</text>
<rect x="1366.1" y="49.4" class="st0" width="312.3" height="274.7"/>
<text transform="matrix(1 0 0 1 1366.0862 308.3465)" class="st1 st2 st3">a</text>
<text transform="matrix(1 0 0 1 1559.0022 308.3465)" class="st1 st2 st3">m</text>
</svg>
